<svg version="1.1" id="Rentegning" xmlns="http://www.w3.org/2000/svg" xmlns:xlink="http://www.w3.org/1999/xlink" x="0px" y="0px"
	 viewBox="0 0 100 100" enable-background="new 0 0 100 100" xml:space="preserve">
<g>
	<polygon fill="none" points="36.1,39.8 48.5,64 67.6,43.3 66,39.8 	"/>
	<path fill="#464646" d="M38.6,65.9c-0.6-6-4.1-11.7-9.4-14.8l-0.5-0.4l-2,4.4l0.4,0.2c3.6,2.3,6,6.5,6.6,10.7l0.1,0.9h5L38.6,65.9z
		"/>
	<g>
		<path fill="#464646" d="M80.6,48.2c-2,0-4,0.3-6,1l-0.5,0.2l2,4.5l0.4-0.1c1.3-0.4,2.7-0.6,4.1-0.6c7.9,0,14.3,6.4,14.3,14.3
			c0,7.9-6.4,14.3-14.3,14.3c-7.9,0-14.3-6.4-14.3-14.3c0-5,2.5-9.5,6.8-12.1l0.4-0.2l-2-4.5l-0.5,0.3c-5.9,3.4-9.5,9.8-9.5,16.6
			c0,10.6,8.6,19.2,19.2,19.2c10.6,0,19.2-8.6,19.2-19.2C99.8,56.8,91.2,48.2,80.6,48.2z"/>
		<path fill="#464646" d="M33.6,69.9c-0.9,7.1-7,12.1-14.2,12.1c-7.9,0-14.3-6.6-14.3-14.4s6.4-14.4,14.3-14.4
			c1.4,0,2.8,0.2,4.1,0.6l0.4,0.1l2-4.5l-0.5-0.2c-2-0.7-4-1-6.1-1c-10.6,0-19.2,8.6-19.2,19.2c0,10.6,8.6,19.2,19.2,19.2
			c9.9,0,18.1-6.8,19.1-16.6l0.1,0h-5L33.6,69.9z"/>
	</g>
	<path fill="#A0A0A0" d="M82.8,66.4L65.1,27.2c-0.4-0.9-1.3-1.2-2.2-1.2H54c-1.4,0-2.5,1.1-2.5,2.5c0,1.4,1.1,2.5,2.5,2.5h7.3l2.2,5
		H34.4l-2-4h-5.5l3.3,6.2L17.2,66.5c-0.3,0.8-0.3,2.1,0.2,2.8C17.8,70,18.6,71,19,71h28.9c0.2,0,1.2-0.6,2-1.4l19.3-21.2l9.1,20.2
		c0.4,0.9,1.3,1.4,2.2,1.4c0.3,0,0.7-0.1,1-0.3C82.8,69.1,83.4,67.6,82.8,66.4z M44,66H23.3L33,44.6L44,66z M67,43.6L48.6,63.7
		L36.9,41h28.8L67,43.6z"/>
	<path fill="#464646" d="M36,31.9c1.6,0,3-1.3,3-3c0-1.6-1.3-3-3-3H24.1c-1.6,0-3,1.3-3,3c0,1.6,1.3,3,3,3h3.5h4.4H36z"/>
</g>
</svg>
