<svg version="1.1" id="Rentegning" xmlns="http://www.w3.org/2000/svg" xmlns:xlink="http://www.w3.org/1999/xlink" x="0px" y="0px"
	 viewBox="0 0 100 100" enable-background="new 0 0 100 100" xml:space="preserve">
<g>
	<polygon fill="#C8C8C8" points="38.1,72 34.8,78 65.6,78 62.3,72 	"/>
	<polygon fill="none" points="38.1,72 34.8,78 65.6,78 62.3,72 	"/>
	<path fill="#464646" d="M82,66l0-38c0-2.4-1.6-4-4-4v0l-56,0c-2,0-4,2-4,4v38L6,83c0,3,2,5,5,5h78h0c0,0,0,0,0,0c3.4,0,5-2.7,5-5
		L82,66z M34.8,78l3.3-6h24.2l3.3,6H34.8z"/>
	<rect x="22" y="28" fill="#C8C8C8" width="56" height="37"/>
	<path fill="#E6E6E6" d="M34.3,65H22V28h36.2C47.2,36.8,38.8,51.2,34.3,65z"/>
</g>
</svg>
