<svg version="1.1" id="Rentegning" xmlns="http://www.w3.org/2000/svg" xmlns:xlink="http://www.w3.org/1999/xlink" x="0px" y="0px"
	 viewBox="0 0 100 100" enable-background="new 0 0 100 100" xml:space="preserve">
<path fill="#C8C8C8" d="M64.4,25.6c-1.2-0.4-2.5-0.8-3.8-1.1l-0.2,0l-0.1,0.2c-2,4-5.9,6.4-10.3,6.4s-8.4-2.5-10.3-6.4l-0.1-0.2
	l-0.2,0c-1.3,0.3-2.6,0.7-3.8,1.1l-0.3,0.1l0.1,0.2c2.5,5.8,8.3,9.5,14.6,9.5c6.3,0,12-3.7,14.6-9.5l0.1-0.2L64.4,25.6z"/>
<path fill="#A0A0A0" d="M62.7,47L71,22.2c-1.7-0.8-3.5-1.5-5.4-2.1c-0.1,2-0.5,4-1.3,5.8c-2.4,5.5-7.9,9.4-14.3,9.4
	s-11.9-3.9-14.3-9.4c-0.8-1.8-1.2-3.7-1.3-5.8c-1.8,0.6-3.6,1.3-5.4,2.1L37.3,47L17.8,85c0.1,0.1,0.3,0.1,0.4,0.2
	C27.9,89.5,38.7,92,50,92c11.3,0,22.1-2.5,31.8-6.8c0.1-0.1,0.3-0.1,0.4-0.2L62.7,47z"/>
<g>
	<path fill="#464646" d="M22.7,25.7c-1.4,0.9-1.8,2.7-0.9,4.1c0.9,1.4,2.7,1.8,4.1,0.9c1.6-1,3.3-2,5.1-2.8L29,22.2
		C26.8,23.2,24.7,24.3,22.7,25.7z"/>
	<path fill="#464646" d="M77.4,25.7c-2.1-1.3-4.2-2.5-6.4-3.5l-1.9,5.6c1.8,0.8,3.5,1.8,5.1,2.8c0.5,0.3,1,0.5,1.6,0.5
		c1,0,1.9-0.5,2.5-1.4C79.1,28.4,78.7,26.5,77.4,25.7z"/>
	<path fill="#464646" d="M48,17.7c-3.3,0.1-6.5,0.6-9.7,1.3c-1.3,0.3-2.6,0.7-3.9,1.1c0.1,2,0.5,4,1.3,5.8c1.3-0.4,2.5-0.8,3.8-1.1
		c3.4-0.8,7-1.3,10.5-1.3c3.6,0,7.1,0.4,10.5,1.3c1.3,0.3,2.6,0.7,3.8,1.1c0.8-1.8,1.2-3.7,1.3-5.8c-1.3-0.4-2.6-0.8-3.9-1.1
		c-2.7-0.6-5.4-1-8.2-1.2c2.6-1.3,4.3-3.9,4.3-7C57.8,6.5,54.3,3,50,3c-3,0-5.6,1.7-7,4.3c-0.5,1-0.1,2.1,0.9,2.6
		c1,0.5,2.1,0.1,2.6-0.9c0.7-1.3,2-2.2,3.5-2.2c2.2,0,3.9,1.8,3.9,3.9c0,2.2-1.8,3.9-3.9,3.9c-1.1,0-2,0.9-2,2L48,17.7z"/>
</g>
</svg>
