<?xml version="1.0" standalone="no"?>
<!DOCTYPE svg PUBLIC "-//W3C//DTD SVG 20010904//EN"
 "http://www.w3.org/TR/2001/REC-SVG-20010904/DTD/svg10.dtd">
<svg version="1.0" xmlns="http://www.w3.org/2000/svg"
 width="352.000000pt" height="352.000000pt" viewBox="0 0 352.000000 352.000000"
 preserveAspectRatio="xMidYMid meet">
<metadata>
Created by potrace 1.14, written by Peter Selinger 2001-2017
</metadata>
<g transform="translate(0.000000,352.000000) scale(0.100000,-0.100000)"
fill="#000000" stroke="none">
<path d="M1662 3479 c-231 -30 -450 -156 -607 -352 -34 -43 -75 -101 -90 -130
-43 -81 -70 -105 -134 -118 -31 -6 -69 -18 -84 -26 -49 -25 -108 -85 -133
-136 -35 -68 -605 -2347 -612 -2444 -6 -92 11 -155 56 -205 l34 -38 328 0
c310 0 328 1 344 19 32 35 36 88 20 266 -19 216 -19 254 1 340 16 68 48 135
65 135 14 0 66 -73 89 -125 31 -71 108 -145 151 -145 13 0 13 94 0 139 -20 71
-30 230 -20 324 28 259 139 429 435 662 134 106 173 142 234 220 102 129 134
219 133 374 -1 62 -7 126 -15 154 -8 26 -14 47 -12 47 9 0 86 -39 120 -62 78
-50 119 -116 134 -210 21 -130 -17 -295 -121 -523 -173 -378 -200 -442 -218
-518 -38 -158 -19 -257 59 -296 22 -12 55 -21 73 -21 90 0 165 115 177 272 4
48 13 94 21 103 12 14 16 13 40 -10 15 -14 38 -47 51 -73 22 -44 24 -59 27
-234 4 -212 6 -217 66 -144 49 60 82 135 97 217 13 76 5 146 -37 321 -32 132
-32 226 0 293 24 50 100 134 112 122 3 -3 19 -54 34 -114 54 -205 86 -279 169
-392 112 -153 174 -280 212 -436 40 -164 25 -403 -35 -574 -20 -54 -20 -105
-2 -120 9 -8 104 -11 327 -9 l313 3 18 31 c45 77 40 239 -13 474 -17 74 -57
252 -89 395 -123 542 -143 631 -235 1020 -51 220 -100 436 -109 480 -53 262
-136 382 -319 456 -73 30 -73 31 -132 122 -73 113 -215 258 -313 322 -194 124
-396 172 -610 144z m317 -250 c117 -32 214 -84 282 -151 90 -88 99 -136 33
-164 -27 -11 -125 -14 -528 -14 -297 0 -505 4 -520 10 -32 12 -33 34 -3 81 73
118 184 194 352 239 102 27 284 27 384 -1z"/>
</g>
</svg>
