<svg version="1.1" id="Rentegning" xmlns="http://www.w3.org/2000/svg" xmlns:xlink="http://www.w3.org/1999/xlink" x="0px" y="0px"
	 viewBox="0 0 100 100" enable-background="new 0 0 100 100" xml:space="preserve">
<g>
	<path fill="#A0A0A0" d="M87,53.2c-0.1-1-0.6-3.3-1.5-4.6c3.7-0.8,5.5-3.2,5.5-7.6H79.6L74,28c-15.9-2.8-32.1-2.8-48,0l-5.6,13H9
		c0,4.3,1.7,6.8,5.2,7.7C13.4,50,13,51.6,13,53.5c0,0,0-0.5,0-0.5v20.3c3.6,0.6,7.3,1.3,11,1.8c17.1,2.1,34.9,2.1,52,0.1
		c3.7-0.4,7.4-0.9,11-1.6L87,53.2z"/>
	<path fill="#C8C8C8" d="M46.3,29.2C40.2,29.3,34.1,29.9,28,31l-5,13h39.2H77l-5-13C63.5,29.5,54.9,28.9,46.3,29.2z"/>
	<path fill="#E6E6E6" d="M53.5,29.2c-7.1,2.6-12.8,8-15.9,14.8H22.9l5-13C36.4,29.5,45,28.9,53.5,29.2z"/>
	<path fill="#464646" d="M67,59v-3H33v3c0,4.4,3.6,8,8,8h18v0C63.4,67,67,63.4,67,59L67,59z"/>
	<path fill="#464646" d="M76,85h4c3.9,0,7-3.1,7-7v-4.5c-3.6,0.6-7.3,1.1-11,1.6V85z"/>
	<path fill="#464646" d="M24,85h-4c-3.9,0-7-3.1-7-7v-4.7c3.6,0.6,7.3,1.3,11,1.8V85z"/>
	<path fill="#E6E6E6" d="M20,56h-7v9h16C29,60,25,56,20,56z"/>
	<path fill="#E6E6E6" d="M80,56h7v9H71C71,60,75,56,80,56z"/>
</g>
</svg>
