<svg version="1.1" id="Rentegning" xmlns="http://www.w3.org/2000/svg" xmlns:xlink="http://www.w3.org/1999/xlink" x="0px" y="0px"
	 viewBox="0 0 100 100" enable-background="new 0 0 100 100" xml:space="preserve">
<g>
	<path fill="#464646" d="M12,30H9v54v3h34.1c1.4,2.4,4,4,6.9,4s5.5-1.6,6.9-4H91v-3V30h-3v52c-9.6-2.9-20.1-2.7-30,0.6
		c-2.7,0.9-5.4,2-8,3.4c-2.6-1.4-5.3-2.5-8-3.4c-10-3.3-20.5-3.5-30-0.6V30z"/>
	<path fill="#E6E6E6" d="M50,30.1c-12.2-6.6-25.8-8.2-38-4.7v57c9.6-2.9,20.1-2.7,30,0.6c2.7,0.9,5.4,2,8,3.4c2.6-1.4,5.3-2.5,8-3.4
		c10-3.3,20.5-3.5,30-0.6v-57C75.8,21.9,62.2,23.5,50,30.1z"/>
	<g>
		<path fill="#C8C8C8" d="M88,25.4c-12.2-3.5-25.8-1.9-38,4.8v56.2c2.6-1.4,5.3-2.5,8-3.4c10-3.3,20.5-3.5,30-0.6V25.4z"/>
	</g>
	<g>
		<path fill="#464646" d="M58,37.7v3.1c7.2-2.4,14.8-3.2,22-2.3v-2.9C72.8,34.7,65.2,35.3,58,37.7z"/>
		<path fill="#464646" d="M58,46.7v3.1c7.2-2.4,14.8-3.2,22-2.3v-2.9C72.8,43.7,65.2,44.3,58,46.7z"/>
		<path fill="#464646" d="M58,55.7v3.1c7.2-2.4,14.8-3.2,22-2.3v-2.9C72.8,52.7,65.2,53.3,58,55.7z"/>
		<path fill="#464646" d="M58,64.7v3.1c7.2-2.4,14.8-3.2,22-2.3v-2.9C72.8,61.7,65.2,62.3,58,64.7z"/>
		<path fill="#464646" d="M20,35.6v2.9c7.2-0.9,14.8-0.1,22,2.3v-3.1C34.8,35.3,27.2,34.7,20,35.6z"/>
		<path fill="#464646" d="M20,44.6v2.9c7.2-0.9,14.8-0.1,22,2.3v-3.1C34.8,44.3,27.2,43.7,20,44.6z"/>
		<path fill="#464646" d="M20,53.6v2.9c7.2-0.9,14.8-0.1,22,2.3v-3.1C34.8,53.3,27.2,52.7,20,53.6z"/>
		<path fill="#464646" d="M20,62.6v2.9c7.2-0.9,14.8-0.1,22,2.3v-3.1C34.8,62.3,27.2,61.7,20,62.6z"/>
	</g>
</g>
</svg>
