<svg version="1.1" id="Rentegning" xmlns="http://www.w3.org/2000/svg" xmlns:xlink="http://www.w3.org/1999/xlink" x="0px" y="0px"
	 viewBox="0 0 100 100" enable-background="new 0 0 100 100" xml:space="preserve">
<g>
	<path fill="#A0A0A0" d="M48.8,53c0.7-0.1,1.5-0.2,2.2-0.2c0.1,0,0.9,0,0.9,0c7,0.5,12.6,6.3,12.6,13.5c0,1.2-0.2,2.4-0.5,3.5
		c2-0.8,3.8-1.9,5.3-3.4L74.1,87h9l-10-44h0.6c7,0,12.6-4.3,14.9-10.2c-2.2-0.5-3.9-2.6-3.9-5c0-0.9,0.2-1.8,0.7-2.6l-4.8-1.8
		c-1.4-5-6-8.7-11.5-8.7c-6.3,0-11.5,4.9-12,11.2h0l-4.8,14.5c-14.5,5.5-24.9,19-26,35.3C27.6,63.5,37.2,54.4,48.8,53z"/>
	<path fill="#464646" d="M58,79L58,79l-2.3,0c4.1-1.5,7.3-4.9,8.4-9.2c0.3-1.1,0.5-2.3,0.5-3.5c0-7.1-5.6-13-12.6-13.5
		c0,0-0.8,0-0.9,0c-0.8,0-1.5,0.1-2.2,0.2c-11.6,1.4-21.2,10.5-22.6,22.8c-0.1,1-0.2,2.1-0.2,3.2v8h32h7.9C65.9,82.1,61.9,79,58,79z
		"/>
	<path fill="#A0A0A0" d="M20,74.2v-2c0-1.9-1.6-3.5-3.5-3.5c-1.9,0-3.5,1.6-3.5,3.5v2c0,7,6,12.8,13,12.8v-7C23,80,20,77.2,20,74.2z
		"/>
	<path fill="#464646" d="M56.3,14.8c-1.8,2-2.9,5.1-2.9,8.3c0,7.6,6.2,13.6,13.8,13.6c0.7,0,1.2-0.2,2.2-0.3V14.8H56.3z"/>
	<path fill="#464646" d="M85.4,25.3c-0.4,0.8-0.7,1.6-0.7,2.6c0,2.4,1.6,4.4,3.9,5c0.7-1.8,1.1-3.9,1.1-6L85.4,25.3z"/>
	<circle fill="#464646" cx="75.6" cy="26.8" r="2.5"/>
</g>
</svg>
