<svg version="1.1" id="Rentegning" xmlns="http://www.w3.org/2000/svg" xmlns:xlink="http://www.w3.org/1999/xlink" x="0px" y="0px"
	 viewBox="0 0 100 100" enable-background="new 0 0 100 100" xml:space="preserve">
<path fill="#C8C8C8" d="M83.8,52.9l-5.5,6.5l-5.2-6l-3.3-3.8l1-13l1.8,0.4l6.4,1.6c-2.7-4.5-6.3-8.3-10.7-11.1
	c-3.3-2.2-7-3.7-11-4.6l4.5,7.2l-12,5l-12-5l4.5-7.2c-9.2,2.1-17,7.9-21.7,15.7l8.3-2l1,13l-8.5,9.9l-5.5-6.5
	c-0.1,1-0.2,2.1-0.2,3.2c0,6.8,2,13.2,5.5,18.5c0.9,1.3,1.9,2.6,2.9,3.8l0.2-2.1l0.5-6.4l12.6,3l4.3,7l2.5,4.1l-7.9,3.2
	C40.7,89,45.2,90,50,90c4.8,0,9.3-1,13.4-2.7L55.5,84l6.8-11.1l12.6-3l0.6,8.5c5.3-6,8.4-13.8,8.4-22.4C84,55,83.9,53.9,83.8,52.9z"
	/>
<path fill="#E6E6E6" d="M25,69.9l12.6,3l4.3,7C57.3,79.1,70,68,73.2,53.4l-3.3-3.8l1-13l1.8,0.4c-0.9-3.4-2.4-6.6-4.3-9.5
	c-3.3-2.2-7-3.7-11-4.6l4.5,7.2l-12,5l-12-5l4.5-7.2c-9.2,2.1-17,7.9-21.7,15.7l8.3-2l1,13l-8.5,9.9l-5.5-6.5
	c-0.1,1-0.2,2.1-0.2,3.2c0,6.8,2,13.2,5.5,18.5c1,0.6,2,1.2,3.1,1.8L25,69.9z"/>
<g>
	<polygon fill="#464646" points="38.9,52 43.2,65 56.8,65 61.1,52 50,44 	"/>
	<path fill="#464646" d="M62,30.1l-4.5-7.2C55.1,22.3,52.6,22,50,22c-2.6,0-5.1,0.3-7.5,0.8L38,30.1l12,5L62,30.1z"/>
	<path fill="#464646" d="M82.4,45.6l-0.1-0.4c-0.8-2.3-1.8-4.5-3-6.5L72.8,37L71,36.6l-1,13l3.3,3.8l5.2,6l5.5-6.5
		C83.6,50.4,83.1,47.9,82.4,45.6z"/>
	<path fill="#464646" d="M62.3,72.9L55.5,84l7.9,3.2c4.7-2,8.8-5.1,12.2-8.8l-0.6-8.5L62.3,72.9z"/>
	<path fill="#464646" d="M37.7,72.9l-12.6-3l-0.5,6.4l-0.2,2.1c3.3,3.8,7.5,6.9,12.2,8.9l7.9-3.2l-2.5-4.1L37.7,72.9z"/>
	<path fill="#464646" d="M29.1,36.5l-8.3,2c-1.3,2.2-2.4,4.5-3.2,7L17.5,46c-0.7,2.2-1.1,4.5-1.3,6.9l5.5,6.5l8.5-9.9L29.1,36.5z"/>
</g>
</svg>
